<svg width="13" height="14" viewBox="0 0 13 14" fill="none" xmlns="http://www.w3.org/2000/svg">
<path fill-rule="evenodd" clip-rule="evenodd" d="M9.3339 1.20089L9.33456 1.69648C11.171 1.8392 12.3841 3.08015 12.3861 4.9832L12.3933 10.5536C12.3959 12.6284 11.0815 13.9051 8.97452 13.9084L3.8279 13.915C1.73411 13.9176 0.403188 12.6106 0.400555 10.5298L0.393315 5.02483C0.390682 3.10922 1.561 1.87158 3.39743 1.7044L3.39677 1.20882C3.39611 0.918077 3.61332 0.699358 3.90294 0.699358C4.19256 0.698698 4.40977 0.916755 4.41043 1.2075L4.41108 1.67004L8.32091 1.66476L8.32025 1.20221C8.31959 0.911469 8.5368 0.693411 8.82642 0.692751C9.10945 0.69209 9.33325 0.910147 9.3339 1.20089ZM1.40764 5.22904L11.3731 5.21583V4.98455C11.3448 3.56388 10.626 2.81852 9.33589 2.70751L9.33655 3.21631C9.33655 3.50044 9.11341 3.72577 8.83038 3.72577C8.54076 3.72643 8.32289 3.50176 8.32289 3.21763L8.32223 2.6824L4.41241 2.68768L4.41307 3.22225C4.41307 3.50705 4.19651 3.73172 3.9069 3.73172C3.61728 3.73238 3.39941 3.50837 3.39941 3.22358L3.39875 2.71478C2.11522 2.84231 1.40501 3.59031 1.40698 5.02354L1.40764 5.22904ZM8.55329 8.23231V8.23957C8.55987 8.54353 8.81 8.77415 9.11343 8.76754C9.40963 8.76027 9.64593 8.50851 9.63935 8.20455C9.62553 7.91381 9.38791 7.67659 9.09237 7.67725C8.78959 7.68386 8.55263 7.92835 8.55329 8.23231ZM9.09693 11.1992C8.79415 11.1926 8.54995 10.9422 8.54929 10.6382C8.54271 10.3342 8.78559 10.0825 9.08837 10.0752H9.09496C9.40432 10.0752 9.6551 10.3257 9.6551 10.6362C9.65576 10.9468 9.40563 11.1985 9.09693 11.1992ZM5.84133 8.24288C5.85449 8.54684 6.10528 8.78406 6.40806 8.77084C6.70426 8.75697 6.94056 8.50587 6.92739 8.20191C6.92015 7.90456 6.67661 7.67329 6.38041 7.67395C6.07763 7.68716 5.84067 7.93892 5.84133 8.24288ZM6.41085 11.1695C6.10807 11.1827 5.85795 10.9455 5.84413 10.6415C5.84413 10.3376 6.08043 10.0865 6.38321 10.0726C6.67941 10.0719 6.9236 10.3032 6.93019 10.5999C6.94401 10.9045 6.70705 11.1556 6.41085 11.1695ZM3.1295 8.26599C3.14267 8.56995 3.39345 8.80783 3.69623 8.79395C3.99243 8.78074 4.22873 8.52898 4.21491 8.22502C4.20832 7.92767 3.96478 7.6964 3.66793 7.69706C3.36515 7.71027 3.12884 7.96203 3.1295 8.26599ZM3.69889 11.1727C3.39611 11.1866 3.14599 10.9487 3.13217 10.6447C3.13151 10.3408 3.36847 10.089 3.67125 10.0758C3.96745 10.0751 4.21164 10.3064 4.21823 10.6038C4.23205 10.9077 3.99575 11.1595 3.69889 11.1727Z" fill="#302842"/>
</svg>
