<svg width="208" height="58" viewBox="0 0 208 58" fill="none" xmlns="http://www.w3.org/2000/svg">
<rect x="0.5" y="0.5" width="207" height="57" rx="26.5" fill="white" stroke="black"/>
<path d="M22.7 28C22.7 26.6267 23.0067 25.4 23.62 24.32C24.2467 23.2267 25.0933 22.38 26.16 21.78C27.24 21.1667 28.4467 20.86 29.78 20.86C31.34 20.86 32.7067 21.26 33.88 22.06C35.0533 22.86 35.8733 23.9667 36.34 25.38H33.12C32.8 24.7133 32.3467 24.2133 31.76 23.88C31.1867 23.5467 30.52 23.38 29.76 23.38C28.9467 23.38 28.22 23.5733 27.58 23.96C26.9533 24.3333 26.46 24.8667 26.1 25.56C25.7533 26.2533 25.58 27.0667 25.58 28C25.58 28.92 25.7533 29.7333 26.1 30.44C26.46 31.1333 26.9533 31.6733 27.58 32.06C28.22 32.4333 28.9467 32.62 29.76 32.62C30.52 32.62 31.1867 32.4533 31.76 32.12C32.3467 31.7733 32.8 31.2667 33.12 30.6H36.34C35.8733 32.0267 35.0533 33.14 33.88 33.94C32.72 34.7267 31.3533 35.12 29.78 35.12C28.4467 35.12 27.24 34.82 26.16 34.22C25.0933 33.6067 24.2467 32.76 23.62 31.68C23.0067 30.6 22.7 29.3733 22.7 28ZM38.0116 29.42C38.0116 28.3 38.2316 27.3067 38.6716 26.44C39.1249 25.5733 39.7316 24.9067 40.4916 24.44C41.2649 23.9733 42.1249 23.74 43.0716 23.74C43.8982 23.74 44.6182 23.9067 45.2316 24.24C45.8582 24.5733 46.3582 24.9933 46.7316 25.5V23.92H49.5516V35H46.7316V33.38C46.3716 33.9 45.8716 34.3333 45.2316 34.68C44.6049 35.0133 43.8782 35.18 43.0516 35.18C42.1182 35.18 41.2649 34.94 40.4916 34.46C39.7316 33.98 39.1249 33.3067 38.6716 32.44C38.2316 31.56 38.0116 30.5533 38.0116 29.42ZM46.7316 29.46C46.7316 28.78 46.5982 28.2 46.3316 27.72C46.0649 27.2267 45.7049 26.8533 45.2516 26.6C44.7982 26.3333 44.3116 26.2 43.7916 26.2C43.2716 26.2 42.7916 26.3267 42.3516 26.58C41.9116 26.8333 41.5516 27.2067 41.2716 27.7C41.0049 28.18 40.8716 28.7533 40.8716 29.42C40.8716 30.0867 41.0049 30.6733 41.2716 31.18C41.5516 31.6733 41.9116 32.0533 42.3516 32.32C42.8049 32.5867 43.2849 32.72 43.7916 32.72C44.3116 32.72 44.7982 32.5933 45.2516 32.34C45.7049 32.0733 46.0649 31.7 46.3316 31.22C46.5982 30.7267 46.7316 30.14 46.7316 29.46ZM55.0863 25.64C55.4463 25.0533 55.9129 24.5933 56.4863 24.26C57.0729 23.9267 57.7396 23.76 58.4863 23.76V26.7H57.7463C56.8663 26.7 56.1996 26.9067 55.7463 27.32C55.3063 27.7333 55.0863 28.4533 55.0863 29.48V35H52.2863V23.92H55.0863V25.64ZM63.1722 25.54C63.5322 25.0067 64.0255 24.5733 64.6522 24.24C65.2922 23.9067 66.0189 23.74 66.8322 23.74C67.7789 23.74 68.6322 23.9733 69.3922 24.44C70.1655 24.9067 70.7722 25.5733 71.2122 26.44C71.6655 27.2933 71.8922 28.2867 71.8922 29.42C71.8922 30.5533 71.6655 31.56 71.2122 32.44C70.7722 33.3067 70.1655 33.98 69.3922 34.46C68.6322 34.94 67.7789 35.18 66.8322 35.18C66.0055 35.18 65.2789 35.02 64.6522 34.7C64.0389 34.3667 63.5455 33.94 63.1722 33.42V35H60.3722V20.2H63.1722V25.54ZM69.0322 29.42C69.0322 28.7533 68.8922 28.18 68.6122 27.7C68.3455 27.2067 67.9855 26.8333 67.5322 26.58C67.0922 26.3267 66.6122 26.2 66.0922 26.2C65.5855 26.2 65.1055 26.3333 64.6522 26.6C64.2122 26.8533 63.8522 27.2267 63.5722 27.72C63.3055 28.2133 63.1722 28.7933 63.1722 29.46C63.1722 30.1267 63.3055 30.7067 63.5722 31.2C63.8522 31.6933 64.2122 32.0733 64.6522 32.34C65.1055 32.5933 65.5855 32.72 66.0922 32.72C66.6122 32.72 67.0922 32.5867 67.5322 32.32C67.9855 32.0533 68.3455 31.6733 68.6122 31.18C68.8922 30.6867 69.0322 30.1 69.0322 29.42ZM78.8469 35.18C77.7802 35.18 76.8202 34.9467 75.9669 34.48C75.1135 34 74.4402 33.3267 73.9469 32.46C73.4669 31.5933 73.2269 30.5933 73.2269 29.46C73.2269 28.3267 73.4735 27.3267 73.9669 26.46C74.4735 25.5933 75.1602 24.9267 76.0269 24.46C76.8935 23.98 77.8602 23.74 78.9269 23.74C79.9935 23.74 80.9602 23.98 81.8269 24.46C82.6935 24.9267 83.3735 25.5933 83.8669 26.46C84.3735 27.3267 84.6269 28.3267 84.6269 29.46C84.6269 30.5933 84.3669 31.5933 83.8469 32.46C83.3402 33.3267 82.6469 34 81.7669 34.48C80.9002 34.9467 79.9269 35.18 78.8469 35.18ZM78.8469 32.74C79.3535 32.74 79.8269 32.62 80.2669 32.38C80.7202 32.1267 81.0802 31.7533 81.3469 31.26C81.6135 30.7667 81.7469 30.1667 81.7469 29.46C81.7469 28.4067 81.4669 27.6 80.9069 27.04C80.3602 26.4667 79.6869 26.18 78.8869 26.18C78.0869 26.18 77.4135 26.4667 76.8669 27.04C76.3335 27.6 76.0669 28.4067 76.0669 29.46C76.0669 30.5133 76.3269 31.3267 76.8469 31.9C77.3802 32.46 78.0469 32.74 78.8469 32.74ZM92.8208 23.76C94.1408 23.76 95.2074 24.18 96.0208 25.02C96.8341 25.8467 97.2408 27.0067 97.2408 28.5V35H94.4408V28.88C94.4408 28 94.2208 27.3267 93.7808 26.86C93.3408 26.38 92.7408 26.14 91.9808 26.14C91.2074 26.14 90.5941 26.38 90.1408 26.86C89.7008 27.3267 89.4808 28 89.4808 28.88V35H86.6808V23.92H89.4808V25.3C89.8541 24.82 90.3274 24.4467 90.9008 24.18C91.4874 23.9 92.1274 23.76 92.8208 23.76ZM116.609 35H113.809L107.469 25.42V35H104.669V21.02H107.469L113.809 30.62V21.02H116.609V35ZM129.676 29.22C129.676 29.62 129.649 29.98 129.596 30.3H121.496C121.563 31.1 121.843 31.7267 122.336 32.18C122.829 32.6333 123.436 32.86 124.156 32.86C125.196 32.86 125.936 32.4133 126.376 31.52H129.396C129.076 32.5867 128.463 33.4667 127.556 34.16C126.649 34.84 125.536 35.18 124.216 35.18C123.149 35.18 122.189 34.9467 121.336 34.48C120.496 34 119.836 33.3267 119.356 32.46C118.889 31.5933 118.656 30.5933 118.656 29.46C118.656 28.3133 118.889 27.3067 119.356 26.44C119.823 25.5733 120.476 24.9067 121.316 24.44C122.156 23.9733 123.123 23.74 124.216 23.74C125.269 23.74 126.209 23.9667 127.036 24.42C127.876 24.8733 128.523 25.52 128.976 26.36C129.443 27.1867 129.676 28.14 129.676 29.22ZM126.776 28.42C126.763 27.7 126.503 27.1267 125.996 26.7C125.489 26.26 124.869 26.04 124.136 26.04C123.443 26.04 122.856 26.2533 122.376 26.68C121.909 27.0933 121.623 27.6733 121.516 28.42H126.776ZM142.18 23.92V35H139.36V33.6C139 34.08 138.527 34.46 137.94 34.74C137.367 35.0067 136.74 35.14 136.06 35.14C135.193 35.14 134.427 34.96 133.76 34.6C133.093 34.2267 132.567 33.6867 132.18 32.98C131.807 32.26 131.62 31.4067 131.62 30.42V23.92H134.42V30.02C134.42 30.9 134.64 31.58 135.08 32.06C135.52 32.5267 136.12 32.76 136.88 32.76C137.653 32.76 138.26 32.5267 138.7 32.06C139.14 31.58 139.36 30.9 139.36 30.02V23.92H142.18ZM148.203 26.22V31.58C148.203 31.9533 148.289 32.2267 148.463 32.4C148.649 32.56 148.956 32.64 149.383 32.64H150.683V35H148.923C146.563 35 145.383 33.8533 145.383 31.56V26.22H144.063V23.92H145.383V21.18H148.203V23.92H150.683V26.22H148.203ZM155.496 25.64C155.856 25.0533 156.323 24.5933 156.896 24.26C157.483 23.9267 158.15 23.76 158.896 23.76V26.7H158.156C157.276 26.7 156.61 26.9067 156.156 27.32C155.716 27.7333 155.496 28.4533 155.496 29.48V35H152.696V23.92H155.496V25.64ZM160.062 29.42C160.062 28.3 160.282 27.3067 160.722 26.44C161.176 25.5733 161.782 24.9067 162.542 24.44C163.316 23.9733 164.176 23.74 165.122 23.74C165.949 23.74 166.669 23.9067 167.282 24.24C167.909 24.5733 168.409 24.9933 168.782 25.5V23.92H171.602V35H168.782V33.38C168.422 33.9 167.922 34.3333 167.282 34.68C166.656 35.0133 165.929 35.18 165.102 35.18C164.169 35.18 163.316 34.94 162.542 34.46C161.782 33.98 161.176 33.3067 160.722 32.44C160.282 31.56 160.062 30.5533 160.062 29.42ZM168.782 29.46C168.782 28.78 168.649 28.2 168.382 27.72C168.116 27.2267 167.756 26.8533 167.302 26.6C166.849 26.3333 166.362 26.2 165.842 26.2C165.322 26.2 164.842 26.3267 164.402 26.58C163.962 26.8333 163.602 27.2067 163.322 27.7C163.056 28.18 162.922 28.7533 162.922 29.42C162.922 30.0867 163.056 30.6733 163.322 31.18C163.602 31.6733 163.962 32.0533 164.402 32.32C164.856 32.5867 165.336 32.72 165.842 32.72C166.362 32.72 166.849 32.5933 167.302 32.34C167.756 32.0733 168.116 31.7 168.382 31.22C168.649 30.7267 168.782 30.14 168.782 29.46ZM177.137 20.2V35H174.337V20.2H177.137Z" fill="#302842"/>
</svg>
