<svg width="23" height="23" viewBox="0 0 23 23" fill="none" xmlns="http://www.w3.org/2000/svg">
<circle cx="11.5" cy="11.5" r="11.5" transform="rotate(-90 11.5 11.5)" fill="#3D56F0"/>
<path d="M11.1167 16.8667C10.7726 16.8667 10.4937 16.5878 10.4937 16.2438V9.29832L7.4571 12.335C7.20891 12.5832 6.80543 12.5796 6.56165 12.3271C6.32388 12.0808 6.32734 11.6894 6.56941 11.4473L11.0673 6.94936C11.0946 6.92211 11.1388 6.92211 11.166 6.94936L15.663 11.4463C15.9043 11.6877 15.9043 12.079 15.663 12.3204C15.4224 12.5609 15.0326 12.5618 14.791 12.3223L11.7396 9.29832V16.2438C11.7396 16.5878 11.4607 16.8667 11.1167 16.8667Z" fill="white"/>
</svg>
